<svg id="Camada_1" data-name="Camada 1" xmlns="http://www.w3.org/2000/svg" viewBox="0 0 120 120"><defs><style>.cls-1{fill:#f2c903;}.cls-2{fill:#80671f;}</style></defs><path class="cls-1" d="M113.38,47.6l-6.83-6.83V31.11A17.54,17.54,0,0,0,89,13.57H79.35L72.52,6.74a17.55,17.55,0,0,0-24.81,0l-6.83,6.83H31.23A17.54,17.54,0,0,0,13.69,31.11v9.66L6.46,48a17,17,0,0,0,0,24l7.23,7.23v9.66a17.54,17.54,0,0,0,17.54,17.54h9.65l6.83,6.83a17.55,17.55,0,0,0,24.81,0l6.83-6.83H89a17.54,17.54,0,0,0,17.54-17.54V79.23l6.83-6.83A17.53,17.53,0,0,0,113.38,47.6Z"/><path class="cls-2" d="M60,20.11A39.89,39.89,0,1,0,99.89,60,39.89,39.89,0,0,0,60,20.11ZM42.27,46.36c7.13-.32,12,7.52,10.81,8-.92.35-5.44-3.85-11.2-3.48-5,.32-7.37,3.89-8.1,3.68C32.75,54.25,35.4,46.67,42.27,46.36ZM61.2,86.7C46.1,86.71,34.77,71.34,36,69.42c1-1.6,10.24,6.79,25.57,7,14,.14,22.58-6.73,23.52-5.11C86.28,73.23,75.31,86.69,61.2,86.7ZM87.81,55.15c-.91.36-5.44-3.85-11.19-3.47-5,.32-7.37,3.89-8.1,3.68-1-.29,1.62-7.87,8.49-8.18C84.14,46.86,89,54.7,87.81,55.15Z"/></svg>