<svg id="Camada_1" data-name="Camada 1" xmlns="http://www.w3.org/2000/svg" viewBox="0 0 105 35"><defs><style>.cls-1{fill:#fff;}.cls-2{fill:#f3a30c;}.cls-3{fill:#d97c0f;}.cls-4{fill:none;stroke:#fff;stroke-miterlimit:10;}.cls-5{fill:#d95813;}.cls-6{fill:#ab4b21;}</style></defs><circle class="cls-1" cx="19.27" cy="17.33" r="9.34"/><path class="cls-2" d="M20.09,30.8A21.48,21.48,0,0,1,13.49,34a22.07,22.07,0,0,1-3-6.74A20.53,20.53,0,0,1,9.91,22a21.5,21.5,0,0,1,.39-4.07,21.74,21.74,0,0,0,1.23,3.34,22,22,0,0,0,1.72,3,21.95,21.95,0,0,0,6.84,6.49Z"/><path class="cls-3" d="M15.89,27.51A22.19,22.19,0,0,1,13.73,25a9.89,9.89,0,0,1,.09,9,21.43,21.43,0,0,0,6.27-3.13A22.07,22.07,0,0,1,15.89,27.51Z"/><path class="cls-2" d="M29.34,26.52a22.05,22.05,0,0,1-2.39,7,22,22,0,0,1-6.85-2.69h0a21.95,21.95,0,0,1-6.84-6.49,20.31,20.31,0,0,0,3.27,1.52,19.66,19.66,0,0,0,3.43.94,21,21,0,0,0,4.08.4A20.54,20.54,0,0,0,29.34,26.52Z"/><path class="cls-3" d="M19.29,30.29c.27.17.53.35.8.51h0A22,22,0,0,0,27,33.5a22.05,22.05,0,0,0,2.39-7,20.06,20.06,0,0,1-3.63.59A37.59,37.59,0,0,1,19.29,30.29Z"/><path class="cls-2" d="M19,4.24a21,21,0,0,0-3.92,3.62,21,21,0,0,0-5.32.65,22.25,22.25,0,0,1,2.39-7A21.78,21.78,0,0,1,19,4.24Z"/><path class="cls-2" d="M29.21,13.05a21.78,21.78,0,0,1-.4,4.08,21.84,21.84,0,0,0-1.23-3.35l0,0a8.87,8.87,0,0,0-4.91-4.51.07.07,0,0,1-.06,0h0a8.86,8.86,0,0,0-6.67.28l-.06,0a21.64,21.64,0,0,0-3.09,1.75,19.76,19.76,0,0,1,2.35-3.38A21,21,0,0,1,19,4.24,21.69,21.69,0,0,1,25.62,1a22.34,22.34,0,0,1,2.95,6.75A21.06,21.06,0,0,1,29.21,13.05Z"/><path class="cls-3" d="M28.53,7.73a22,22,0,0,0-2.06-5.26,7.56,7.56,0,0,1-3.31,7,8.88,8.88,0,0,1,4.36,4.27l0,.06a22.89,22.89,0,0,1,1.24,3.34,21.62,21.62,0,0,0,.4-4.08A21.45,21.45,0,0,0,28.53,7.73Z"/><path class="cls-2" d="M36.09,23.58a21.76,21.76,0,0,1-6.75,2.94,20.54,20.54,0,0,1-5.31.65,21,21,0,0,1-4.08-.4,21.52,21.52,0,0,0,3.36-1.22,23.31,23.31,0,0,0,3.05-1.73,21.32,21.32,0,0,0,3.18-2.62h0A21.74,21.74,0,0,0,32.84,17,21.73,21.73,0,0,1,36.09,23.58Z"/><path class="cls-3" d="M36.09,23.58a21.93,21.93,0,0,0-1.29-3.32,12.8,12.8,0,0,1-5.74,6.33l.28-.07A21.76,21.76,0,0,0,36.09,23.58Z"/><path class="cls-2" d="M15.09,7.86a19.76,19.76,0,0,0-2.35,3.38,21.32,21.32,0,0,0-3.18,2.62,20.75,20.75,0,0,0-3.28,4.21A22.09,22.09,0,0,1,3,11.45,21.52,21.52,0,0,1,9.77,8.51,21,21,0,0,1,15.09,7.86Z"/><path class="cls-2" d="M35.5,10.31a1.46,1.46,0,0,1,0-.2,22,22,0,0,0-7-2.38,21.06,21.06,0,0,1,.64,5.32,20.8,20.8,0,0,1-.34,3.67C31.27,14.77,33.78,12.93,35.5,10.31Z"/><path class="cls-2" d="M28.87,16.72c0,.13,0,.27-.06.41a20.48,20.48,0,0,1-.94,3.42,20.74,20.74,0,0,1-1.51,3.27,21.32,21.32,0,0,0,3.18-2.62h0A21.74,21.74,0,0,0,32.84,17h0a22,22,0,0,0,2.66-6.66C33.78,12.93,31.27,14.77,28.87,16.72Z"/><path class="cls-3" d="M28.87,16.72c0,.13,0,.27-.06.41a20.48,20.48,0,0,1-.94,3.42,20.74,20.74,0,0,1-1.51,3.27,21.32,21.32,0,0,0,3.18-2.62h0A21.74,21.74,0,0,0,32.84,17h0a22,22,0,0,0,2.66-6.66C33.78,12.93,31.27,14.77,28.87,16.72Z"/><path class="cls-2" d="M10.3,17.92A21.5,21.5,0,0,0,9.91,22a20.53,20.53,0,0,0,.63,5.31,22,22,0,0,1-6.95-2.38,21.43,21.43,0,0,1,2.69-6.85,20.75,20.75,0,0,1,3.28-4.21,21.32,21.32,0,0,1,3.18-2.62,21.42,21.42,0,0,0-1.5,3.25A20.76,20.76,0,0,0,10.3,17.92Z"/><path class="cls-4" d="M20.09,30.8A21.48,21.48,0,0,1,13.49,34a22.07,22.07,0,0,1-3-6.74A20.53,20.53,0,0,1,9.91,22a21.5,21.5,0,0,1,.39-4.07,21.74,21.74,0,0,0,1.23,3.34,22,22,0,0,0,1.72,3,21.95,21.95,0,0,0,6.84,6.49Z"/><path class="cls-4" d="M29.34,26.52a22.05,22.05,0,0,1-2.39,7,22,22,0,0,1-6.85-2.69h0a21.95,21.95,0,0,1-6.84-6.49,20.31,20.31,0,0,0,3.27,1.52,19.66,19.66,0,0,0,3.43.94,21,21,0,0,0,4.08.4A20.54,20.54,0,0,0,29.34,26.52Z"/><path class="cls-4" d="M19,4.24a21,21,0,0,0-3.92,3.62,21,21,0,0,0-5.32.65,22.25,22.25,0,0,1,2.39-7A21.78,21.78,0,0,1,19,4.24Z"/><path class="cls-4" d="M29.21,13.05a21.78,21.78,0,0,1-.4,4.08,21.84,21.84,0,0,0-1.23-3.35l0,0a8.87,8.87,0,0,0-4.91-4.51.07.07,0,0,1-.06,0h0a8.86,8.86,0,0,0-6.67.28l-.06,0a21.64,21.64,0,0,0-3.09,1.75,19.76,19.76,0,0,1,2.35-3.38A21,21,0,0,1,19,4.24,21.69,21.69,0,0,1,25.62,1a22.34,22.34,0,0,1,2.95,6.75A21.06,21.06,0,0,1,29.21,13.05Z"/><path class="cls-4" d="M36.09,23.58a21.76,21.76,0,0,1-6.75,2.94,20.54,20.54,0,0,1-5.31.65,21,21,0,0,1-4.08-.4,21.52,21.52,0,0,0,3.36-1.22,23.31,23.31,0,0,0,3.05-1.73,21.32,21.32,0,0,0,3.18-2.62h0A21.74,21.74,0,0,0,32.84,17,21.73,21.73,0,0,1,36.09,23.58Z"/><path class="cls-4" d="M15.09,7.86a19.76,19.76,0,0,0-2.35,3.38,21.32,21.32,0,0,0-3.18,2.62,20.75,20.75,0,0,0-3.28,4.21A22.09,22.09,0,0,1,3,11.45,21.52,21.52,0,0,1,9.77,8.51,21,21,0,0,1,15.09,7.86Z"/><path class="cls-4" d="M35.55,10.11A21.76,21.76,0,0,1,32.84,17h0a21.74,21.74,0,0,1-3.29,4.21h0a21.32,21.32,0,0,1-3.18,2.62,20.74,20.74,0,0,0,1.51-3.27,20.48,20.48,0,0,0,.94-3.42,21.78,21.78,0,0,0,.4-4.08,21.06,21.06,0,0,0-.64-5.32A22,22,0,0,1,35.55,10.11Z"/><path class="cls-4" d="M10.3,17.92A21.5,21.5,0,0,0,9.91,22a20.53,20.53,0,0,0,.63,5.31,22,22,0,0,1-6.95-2.38,21.43,21.43,0,0,1,2.69-6.85,20.75,20.75,0,0,1,3.28-4.21,21.32,21.32,0,0,1,3.18-2.62,21.42,21.42,0,0,0-1.5,3.25A20.76,20.76,0,0,0,10.3,17.92Z"/><circle class="cls-5" cx="19.56" cy="17.51" r="8.52"/><path class="cls-6" d="M23.27,9.85c.66,6-4,11.12-9.94,13.46A8.51,8.51,0,1,0,23.27,9.85Z"/><path class="cls-1" d="M44.55,11.66l.29.19a2.56,2.56,0,0,1,.31.28,1.9,1.9,0,0,1,.34.45,3.7,3.7,0,0,1,.22.63,3.34,3.34,0,0,1,.11.87,1.48,1.48,0,0,1-.45,1,3.22,3.22,0,0,1-1,.72,3.77,3.77,0,0,1-1,.33,2.12,2.12,0,0,1-.56,0,1.89,1.89,0,0,1-.44-.12,1.49,1.49,0,0,1-.31-.16l-.26-.2s0,.09,0,.24a.4.4,0,0,1-.09.29.7.7,0,0,1-.3.13,5.45,5.45,0,0,1-1.25,0c-.63-.06-.94-.17-.94-.33s0-.46,0-1.29,0-1.68,0-2.54,0-1.7,0-2.52,0-1.3,0-1.44.27-.34.71-.41a5.15,5.15,0,0,1,1.3,0c.42.06.64.11.64.18v.25L42.15,8a3.22,3.22,0,0,1,2.25.1,2.16,2.16,0,0,1,1.2,1.65,1.22,1.22,0,0,1,0,.6,2,2,0,0,1-.27.52,4.4,4.4,0,0,1-.35.39l-.3.29C44.57,11.62,44.54,11.66,44.55,11.66ZM41.92,14.3c0,.09.16.14.35.16a1.85,1.85,0,0,0,.57,0,1.34,1.34,0,0,0,.52-.22q.24-.15.24-.33a.68.68,0,0,0-.33-.61,1.26,1.26,0,0,0-.73-.2,1,1,0,0,0-.62.17.67.67,0,0,0-.12.5A1.51,1.51,0,0,0,41.92,14.3Zm0-3.69a1.2,1.2,0,0,0,.5.06,1.69,1.69,0,0,0,.76-.17c.24-.12.31-.25.21-.41a1.14,1.14,0,0,0-.78-.52c-.36-.08-.59,0-.69.19a.91.91,0,0,0-.09.43A.82.82,0,0,0,41.92,10.61Z"/><path class="cls-1" d="M49.74,7.77q3.16,0,3.17,4.42a6,6,0,0,1-.08,1,5.4,5.4,0,0,1-.23.9,3.4,3.4,0,0,1-.4.81,3.73,3.73,0,0,1-.6.65,2.56,2.56,0,0,1-.82.43,3.44,3.44,0,0,1-1,.16,4.13,4.13,0,0,1-.89-.09,2.58,2.58,0,0,1-.85-.33,2.33,2.33,0,0,1-.73-.63,3.09,3.09,0,0,1-.49-1,5.21,5.21,0,0,1-.19-1.5c0-.34,0-.67,0-1a8.34,8.34,0,0,1,.12-.94A5.24,5.24,0,0,1,47,9.71a4,4,0,0,1,.38-.78,2.38,2.38,0,0,1,.57-.61,2.44,2.44,0,0,1,.79-.4A3.37,3.37,0,0,1,49.74,7.77ZM50.59,13a4.17,4.17,0,0,0,.15-.87,4.77,4.77,0,0,0,0-.86,1.41,1.41,0,0,0-.29-.67.73.73,0,0,0-.56-.26.77.77,0,0,0-.59.28,1.5,1.5,0,0,0-.35.7,3.38,3.38,0,0,0-.09.92,3.48,3.48,0,0,0,.15.93.82.82,0,0,0,.5.55.78.78,0,0,0,.69-.09A1,1,0,0,0,50.59,13Z"/><path class="cls-1" d="M62.19,8.07c0,.35,0,3-.12,7.87,0,.15-.17.25-.5.31a2.59,2.59,0,0,1-1,0c-.34-.06-.52-.17-.53-.32Q60,15.23,60,11.36l-.48.57a8.23,8.23,0,0,1-.79.83,1,1,0,0,1-.56.29,1.17,1.17,0,0,1-.58-.22A2.69,2.69,0,0,1,57,12.4l-.51-.56a4.47,4.47,0,0,0-.4-.42,13.12,13.12,0,0,1,.17,2.28,11.64,11.64,0,0,1-.11,2.23c0,.08-.21.15-.55.22a3.44,3.44,0,0,1-1,.06c-.34,0-.5-.1-.5-.23s0-.56-.05-1.42,0-1.74,0-2.62,0-1.72-.05-2.53,0-1.28,0-1.41.18-.39.48-.46a2.15,2.15,0,0,1,1,0,1.65,1.65,0,0,1,.8.34,5.19,5.19,0,0,1,.76.86c.27.36.5.7.71,1a4.93,4.93,0,0,0,.43.6,4.21,4.21,0,0,0,.36-.54c.13-.22.24-.41.33-.59a5.33,5.33,0,0,1,.33-.55,4.16,4.16,0,0,1,.36-.49,1.58,1.58,0,0,1,.43-.34,1.35,1.35,0,0,1,.53-.15h.22a4.67,4.67,0,0,1,1.12,0Q62.19,7.74,62.19,8.07Z"/><path class="cls-1" d="M73.41,11.91A4.25,4.25,0,0,1,73,13.47a5,5,0,0,1-1,1.41,4.79,4.79,0,0,1-1.52,1,4.92,4.92,0,0,1-2,.39h-.45l-.37,0a1.5,1.5,0,0,1-.35,0l-.24-.06a.37.37,0,0,1-.18-.11.34.34,0,0,1-.06-.15c0-.15,0-.55,0-1.21s0-1.3,0-1.94,0-1.32,0-2,0-1.31,0-1.8A4.4,4.4,0,0,1,67,8a.42.42,0,0,1,.11-.15.51.51,0,0,1,.15-.07.47.47,0,0,1,.19,0h.24l.29,0h.33Q73.35,7.92,73.41,11.91Zm-2.32.25a1.17,1.17,0,0,0-.27-1.22,1.39,1.39,0,0,0-1.24-.51.72.72,0,0,0-.67.43,2.74,2.74,0,0,0-.08,1.1,3.94,3.94,0,0,1,0,.43c0,.2,0,.37,0,.5a1.36,1.36,0,0,0,.08.39.4.4,0,0,0,.18.27.68.68,0,0,0,.71-.09,3.27,3.27,0,0,0,.8-.64A2,2,0,0,0,71.09,12.16Z"/><path class="cls-1" d="M76.72,16.13a.69.69,0,0,1-.4.07,3.67,3.67,0,0,1-.66-.05c-.2,0-.44-.06-.72-.09l-.42,0-.06-.26a18.09,18.09,0,0,1-.15-2.09c0-1.19-.07-2.08,0-2.68a18.87,18.87,0,0,1,.19-3,.19.19,0,0,1,.14-.12,3.55,3.55,0,0,1,.61,0c.3,0,.61,0,.94,0a1.7,1.7,0,0,1,.53.08s.06,1.15.07,3.35c0,.9,0,1.74,0,2.53s0,1.27,0,1.47A1.8,1.8,0,0,1,76.72,16.13Z"/><path class="cls-1" d="M83.81,15.92c0,.1-.17.18-.5.22a4.52,4.52,0,0,1-1,0q-.52-.06-.57-.27c-.21-.84-.36-1.4-.46-1.67S81,14,80.79,14s-.4.06-.44.21-.2.64-.55,1.79q0,.15-.6.18a5,5,0,0,1-1.09-.05c-.36-.06-.54-.14-.55-.24s.18-1.37.6-3.62a31.15,31.15,0,0,1,.91-4.08c.08-.19.36-.32.83-.39a4.57,4.57,0,0,1,1.43,0c.48.07.75.21.82.4q.21.54.93,3.93C83.57,14.38,83.81,15.65,83.81,15.92Zm-2.74-3.83a7.31,7.31,0,0,0-.06-.82c0-.33-.08-.63-.13-.89s-.1-.39-.13-.38-.17.26-.28.8a5.24,5.24,0,0,0-.14,1.29.22.22,0,0,0,.19.2.6.6,0,0,0,.37,0C81,12.21,81.07,12.15,81.07,12.09Z"/><path class="cls-1" d="M45.06,17.88c.2,0,.34.16.4.5a2.21,2.21,0,0,1,0,1c-.08.33-.21.5-.38.5a31.66,31.66,0,0,1-3.37,0,.26.26,0,0,0-.14,0,.12.12,0,0,0-.06.12,1.09,1.09,0,0,0,0,.18l0,.25c0,.11,0,.21,0,.3a15.45,15.45,0,0,1,3.4.08c.14,0,.2.32.18.92a1.88,1.88,0,0,1-.23,1.08,1.74,1.74,0,0,1-.61.05c-.36,0-.73,0-1.12,0a6.26,6.26,0,0,0-1.08,0c-.33.05-.5.13-.5.26s0,.52,0,.76,0,.41,0,.54v.72c0,.35,0,.65,0,.9q0,.06-.24.12a4.06,4.06,0,0,1-.58.08c-.22,0-.45,0-.68,0a1.84,1.84,0,0,1-.58-.13c-.16-.07-.24-.17-.24-.29V18.39a.52.52,0,0,1,.26-.42,1.69,1.69,0,0,1,.7-.23,9.28,9.28,0,0,1,1-.08c.35,0,.73,0,1.14,0l1.12.07,1,.09Z"/><path class="cls-1" d="M52.21,25a2.41,2.41,0,0,1-.12.7l-.08.21-.44,0a24.48,24.48,0,0,1-3.26.16h-.06a9.46,9.46,0,0,1-1.39-.09.59.59,0,0,1-.35-.41h0a1.87,1.87,0,0,1-.08-.54c0-.23,0-.84,0-1.84,0-1.41,0-2.39.07-3s.07-1.16.11-1.6.07-.74.13-.78a2.51,2.51,0,0,1,1.1-.2c.55,0,.84,0,.89.19a.59.59,0,0,0,.12.19.36.36,0,0,1,.07.17c0,.06,0,.18,0,.36s-.05,1.13-.07,2.53c0,1.14,0,1.85,0,2.12s.09.43.2.45a9.82,9.82,0,0,0,2,.1l.88,0a.27.27,0,0,1,.22.08C52.25,24,52.28,24.4,52.21,25Z"/><path class="cls-1" d="M55.9,17.77q3.16,0,3.17,4.42a6,6,0,0,1-.08.95,5.4,5.4,0,0,1-.23.9,3.43,3.43,0,0,1-.41.81,3.09,3.09,0,0,1-.6.65,2.61,2.61,0,0,1-.81.43,3.19,3.19,0,0,1-1,.16A4.29,4.29,0,0,1,55,26a2.61,2.61,0,0,1-.84-.33,2.33,2.33,0,0,1-.73-.63,3.09,3.09,0,0,1-.5-1,5.58,5.58,0,0,1-.19-1.5c0-.34,0-.67,0-1a8.51,8.51,0,0,1,.12-.95,5.22,5.22,0,0,1,.24-.89,3.51,3.51,0,0,1,.38-.78,2.53,2.53,0,0,1,.56-.61,2.5,2.5,0,0,1,.8-.4A3.33,3.33,0,0,1,55.9,17.77ZM56.75,23a3.76,3.76,0,0,0,.14-.88,3.45,3.45,0,0,0,0-.86,1.32,1.32,0,0,0-.29-.67.69.69,0,0,0-.55-.26.76.76,0,0,0-.59.28,1.67,1.67,0,0,0-.36.7,4.42,4.42,0,0,0-.09.92,3.07,3.07,0,0,0,.16.93.8.8,0,0,0,.5.55.75.75,0,0,0,.68-.08A1.06,1.06,0,0,0,56.75,23Z"/><path class="cls-1" d="M65.53,22.4a2.44,2.44,0,0,1-2,.48l.84.23.84.23a4.74,4.74,0,0,1,.66.25,4,4,0,0,1,.68.38.34.34,0,0,1,.1.24,1.31,1.31,0,0,1,0,.39c0,.14-.07.3-.12.46a3.85,3.85,0,0,1-.19.47,3.33,3.33,0,0,1-.24.39,1,1,0,0,1-.25.25.22.22,0,0,1-.23,0c-.25-.12-.77-.34-1.53-.64a14.42,14.42,0,0,1-1.43-.62c0,.43,0,.81,0,1.16,0,.1-.21.18-.62.24a4.76,4.76,0,0,1-1.25,0c-.42-.06-.63-.17-.65-.34-.06-.53-.08-1.86-.08-4s0-3.44.08-3.91c0-.14.19-.25.53-.32a4.15,4.15,0,0,1,1.07-.06,1.79,1.79,0,0,1,.81.18.19.19,0,0,1,.12.11.19.19,0,0,1,0,.11.51.51,0,0,1,0,.18v.17l.71-.25c.16-.06.39-.12.7-.21a2.62,2.62,0,0,1,.84-.1,1.79,1.79,0,0,1,.66.18,1.47,1.47,0,0,1,.69.68,2.09,2.09,0,0,1,.24,1,4.88,4.88,0,0,1-.13,1.06,4.17,4.17,0,0,1-.38,1A2.07,2.07,0,0,1,65.53,22.4ZM62.69,21c0,.2.23.2.7,0a2.83,2.83,0,0,0,1.08-.77.45.45,0,0,0,.12-.27q0-.33-.57-.18a2.17,2.17,0,0,0-1.09.63A.81.81,0,0,0,62.69,21Z"/><path class="cls-1" d="M76.62,21.91a4.06,4.06,0,0,1-.38,1.56,5,5,0,0,1-1,1.41,4.68,4.68,0,0,1-1.52,1,4.91,4.91,0,0,1-1.94.39H71l-.34,0-.25-.07a.31.31,0,0,1-.18-.11.34.34,0,0,1-.06-.15c0-.15,0-.55,0-1.21s0-1.3,0-1.94,0-1.32,0-2,0-1.31,0-1.8a3.59,3.59,0,0,1,.11-.93.4.4,0,0,1,.1-.15.51.51,0,0,1,.15-.07.53.53,0,0,1,.2,0h.23l.29,0h.33Q76.56,17.93,76.62,21.91Zm-2.32.25A1.17,1.17,0,0,0,74,20.94a1.38,1.38,0,0,0-1.24-.51.73.73,0,0,0-.67.43,2.77,2.77,0,0,0-.07,1.1c0,.09,0,.23,0,.43s0,.37,0,.5a2,2,0,0,0,.08.4.42.42,0,0,0,.19.26.67.67,0,0,0,.7-.09,3.09,3.09,0,0,0,.8-.64A2,2,0,0,0,74.3,22.16Z"/><path class="cls-1" d="M80.42,17.77q3.17,0,3.17,4.42a6,6,0,0,1-.08.95,5.4,5.4,0,0,1-.23.9,3.4,3.4,0,0,1-.4.81,3.73,3.73,0,0,1-.6.65,2.56,2.56,0,0,1-.82.43,3.15,3.15,0,0,1-1,.16,4.13,4.13,0,0,1-.89-.09,2.58,2.58,0,0,1-.85-.33A2.33,2.33,0,0,1,78,25a3.09,3.09,0,0,1-.49-1,5.21,5.21,0,0,1-.19-1.5c0-.34,0-.67,0-1a8.51,8.51,0,0,1,.12-.95,5.24,5.24,0,0,1,.23-.89,4,4,0,0,1,.38-.78,2.38,2.38,0,0,1,.57-.61,2.44,2.44,0,0,1,.79-.4A3.37,3.37,0,0,1,80.42,17.77ZM81.27,23a4.38,4.38,0,0,0,.15-.88,4.77,4.77,0,0,0,0-.86,1.41,1.41,0,0,0-.29-.67.73.73,0,0,0-.56-.26.77.77,0,0,0-.59.28,1.65,1.65,0,0,0-.35.7,3.64,3.64,0,0,0,.06,1.85.82.82,0,0,0,.5.55.77.77,0,0,0,.69-.08A1,1,0,0,0,81.27,23Z"/><path class="cls-1" d="M92.61,21.91a4.25,4.25,0,0,1-.38,1.56,5,5,0,0,1-1,1.41,4.84,4.84,0,0,1-3.47,1.42H87l-.34,0-.24-.07a.31.31,0,0,1-.18-.11.25.25,0,0,1-.06-.15c0-.15,0-.55,0-1.21s0-1.3,0-1.94,0-1.32,0-2,0-1.31,0-1.8a3.78,3.78,0,0,1,.1-.93.42.42,0,0,1,.11-.15.61.61,0,0,1,.14-.07.56.56,0,0,1,.2,0h.24l.29,0h.33Q92.55,17.93,92.61,21.91Zm-2.32.25A1.17,1.17,0,0,0,90,20.94a1.39,1.39,0,0,0-1.24-.51.71.71,0,0,0-.67.43A2.74,2.74,0,0,0,88,22a3.94,3.94,0,0,1,0,.43c0,.2,0,.37,0,.5a1.49,1.49,0,0,0,.08.4.41.41,0,0,0,.18.26.68.68,0,0,0,.71-.09,3.27,3.27,0,0,0,.8-.64A2,2,0,0,0,90.29,22.16Z"/><path class="cls-1" d="M95.92,26.13a.69.69,0,0,1-.4.07,2.94,2.94,0,0,1-.66-.05c-.2,0-.44-.06-.72-.09l-.42,0-.06-.26a18.09,18.09,0,0,1-.15-2.09c-.05-1.19-.07-2.08-.05-2.68a18.87,18.87,0,0,1,.19-3,.19.19,0,0,1,.14-.12,3.55,3.55,0,0,1,.61,0c.3,0,.61,0,.94.05a1.7,1.7,0,0,1,.53.08s.06,1.15.07,3.35c0,.9,0,1.74,0,2.53s0,1.28,0,1.47A1.8,1.8,0,0,1,95.92,26.13Z"/><path class="cls-1" d="M103,25.92c0,.1-.17.18-.5.22a4.52,4.52,0,0,1-1,0q-.52-.06-.57-.27c-.21-.84-.36-1.4-.46-1.67S100.23,24,100,24s-.4.06-.44.21-.2.65-.55,1.79c0,.1-.23.16-.6.19a5.65,5.65,0,0,1-1.09-.06c-.36-.06-.54-.14-.55-.24s.18-1.37.6-3.62a31.15,31.15,0,0,1,.91-4.08c.08-.19.36-.32.83-.39a4.57,4.57,0,0,1,1.43,0c.48.07.75.21.82.4q.21.54.93,3.93C102.77,24.38,103,25.65,103,25.92Zm-2.74-3.83a7.31,7.31,0,0,0-.06-.82c0-.33-.08-.63-.13-.89S100,20,100,20s-.17.26-.28.8a5.24,5.24,0,0,0-.14,1.29.22.22,0,0,0,.19.2.6.6,0,0,0,.37,0C100.21,22.21,100.27,22.16,100.27,22.09Z"/></svg>